<?xml version="1.0" standalone="no"?>
<!DOCTYPE svg PUBLIC "-//W3C//DTD SVG 20010904//EN"
 "http://www.w3.org/TR/2001/REC-SVG-20010904/DTD/svg10.dtd">
<svg version="1.0" xmlns="http://www.w3.org/2000/svg"
 width="2000.000000pt" height="2000.000000pt" viewBox="0 0 2000.000000 2000.000000"
 preserveAspectRatio="xMidYMid meet">

<g transform="translate(0.000000,2000.000000) scale(0.100000,-0.100000)"
fill="#000000" stroke="none">
<path d="M0 10000 l0 -10000 10000 0 10000 0 0 10000 0 10000 -10000 0 -10000
0 0 -10000z m13380 5398 c11 -13 23 -32 26 -43 2 -11 3 -504 2 -1095 l-3
-1075 -1070 -5 c-588 -3 -1083 -2 -1100 2 -16 4 -36 17 -43 28 -10 16 -13 241
-13 1087 l0 1066 22 23 22 24 1026 3 c564 1 1045 3 1068 5 33 1 47 -3 63 -20z
m-4481 -2233 c16 -8 31 -22 35 -30 3 -9 6 -507 6 -1106 l0 -1089 -1086 0
c-746 0 -1092 -3 -1105 -11 -11 -5 -25 -22 -31 -37 -7 -18 -10 -353 -8 -1054
0 -564 -2 -1043 -6 -1063 -13 -70 64 -65 -1120 -66 l-1069 0 -23 26 -22 26 2
2186 3 2185 28 24 28 24 2170 0 c1885 0 2174 -2 2198 -15z m6727 -18 l24 -28
0 -2169 c0 -1349 -4 -2178 -10 -2194 -5 -14 -18 -30 -29 -36 -14 -7 -344 -10
-1088 -10 -587 0 -1078 -3 -1090 -6 l-23 -6 -2 -1112 -3 -1111 -1097 -5 c-995
-5 -1099 -7 -1114 -21 -14 -15 -16 -111 -14 -1077 0 -583 -2 -1071 -5 -1084
-13 -53 193 -50 -3353 -49 -3301 1 -3307 1 -3327 21 -20 20 -20 31 -20 1095 0
1071 0 1075 21 1095 l20 21 2185 -1 2186 0 26 24 27 25 0 2211 c0 1761 3 2210
13 2210 6 0 496 0 1086 0 1196 0 1111 5 1131 -69 7 -27 10 -372 10 -1075 -1
-725 2 -1041 10 -1056 6 -11 21 -22 33 -25 12 -3 509 -7 1105 -8 l1082 -2 0
2232 0 2232 28 4 c15 2 508 4 1095 3 l1069 -1 24 -28z m-5 -6706 l29 -29 0
-1051 c0 -640 -4 -1059 -10 -1075 -5 -14 -18 -30 -29 -36 -14 -7 -339 -11
-1078 -11 -582 0 -1063 0 -1069 0 -5 1 -20 10 -32 21 l-22 21 0 1088 c0 598 3
1091 7 1094 3 4 494 7 1090 7 l1085 0 29 -29z"/>
</g>
</svg>
